<?xml version="1.0" encoding="UTF-8" standalone="no"?>
<svg
   version="1.1"
   width="256"
   height="256"
   viewBox="0 0 256 256"
   xml:space="preserve"
   id="svg7"
   sodipodi:docname="monitor.svg"
   inkscape:version="1.3.2 (091e20ef0f, 2023-11-25, custom)"
   inkscape:export-filename="computer.png"
   inkscape:export-xdpi="187.5"
   inkscape:export-ydpi="187.5"
   xmlns:inkscape="http://www.inkscape.org/namespaces/inkscape"
   xmlns:sodipodi="http://sodipodi.sourceforge.net/DTD/sodipodi-0.dtd"
   xmlns="http://www.w3.org/2000/svg"
   xmlns:svg="http://www.w3.org/2000/svg"><sodipodi:namedview
   id="namedview7"
   pagecolor="#ffffff"
   bordercolor="#000000"
   borderopacity="0.25"
   inkscape:showpageshadow="2"
   inkscape:pageopacity="0.0"
   inkscape:pagecheckerboard="0"
   inkscape:deskcolor="#d1d1d1"
   inkscape:zoom="0.921875"
   inkscape:cx="128"
   inkscape:cy="127.45763"
   inkscape:window-width="1850"
   inkscape:window-height="909"
   inkscape:window-x="35"
   inkscape:window-y="97"
   inkscape:window-maximized="1"
   inkscape:current-layer="g7" />

<defs
   id="defs1">
</defs>
<g
   style="stroke: none; stroke-width: 0; stroke-dasharray: none; stroke-linecap: butt; stroke-linejoin: miter; stroke-miterlimit: 10; fill: none; fill-rule: nonzero; opacity: 1;"
   transform="translate(1.4065934065934016 1.4065934065934016) scale(2.81 2.81)"
   id="g7">
	<path
   d="m 12.667001,2.19 3.338,-1.862 0.003,0.009 c 0.612,-0.395 1.421,-0.478 2.141,-0.062 l 58.172,33.586 c 1.219,0.704 1.97,2.005 1.97,3.413 v 48.578 c 0,0.856 -0.456,1.55 -1.096,1.938 l 0.004,0.005 -0.04,0.022 c -0.004,0.002 -0.007,0.004 -0.011,0.006 l -3.448,1.92 -1.254,-2.364 0.963,-0.409 -56.225,-32.462 c -1.314,-0.758 -2.123,-2.16 -2.123,-3.677 V 3.775 l -0.725,0.224 z"
   style="opacity:1;fill:#91a1b9;fill-rule:nonzero;stroke:none;stroke-width:1;stroke-linecap:butt;stroke-linejoin:miter;stroke-miterlimit:10;stroke-dasharray:none"
   stroke-linecap="round"
   id="path1" />
	<path
   d="m 52.422001,79.431 1.386,1.868 -9.596,5.612 c -4.764,-3.677 -10.41,-6.82 -16.643,-9.609 l 10.583,-6.11 14.27,8.239 v 0"
   style="opacity:1;fill:#91a1b9;fill-rule:nonzero;stroke:none;stroke-width:1;stroke-linecap:butt;stroke-linejoin:miter;stroke-miterlimit:10;stroke-dasharray:none"
   stroke-linecap="round"
   id="path2" />
	<path
   d="m 44.211001,86.911 v -2.74 c -4.499,-3.551 -10.24,-6.69 -16.643,-9.609 v 2.74 z"
   style="opacity:1;fill:#b8c3d3;fill-rule:nonzero;stroke:none;stroke-width:1;stroke-linecap:butt;stroke-linejoin:miter;stroke-miterlimit:10;stroke-dasharray:none"
   stroke-linecap="round"
   id="path3" />
	<polygon
   points="37.58,79.43 45.79,84.17 62.43,74.56 54.22,69.82 "
   style="opacity:1;fill:#d3dce8;fill-rule:nonzero;stroke:none;stroke-width:1;stroke-linecap:butt;stroke-linejoin:miter;stroke-miterlimit:10;stroke-dasharray:none"
   transform="matrix(-1,0,0,1,90.000001,0)"
   id="polygon3" />
	<path
   d="m 48.945001,76.653 -16.643,-9.609 v 1.758 l 16.643,9.609 c 0.271,-0.572 0.259,-1.159 0,-1.758 z"
   style="opacity:1;fill:#b8c3d3;fill-rule:nonzero;stroke:none;stroke-width:1;stroke-linecap:butt;stroke-linejoin:miter;stroke-miterlimit:10;stroke-dasharray:none"
   stroke-linecap="round"
   id="path4" />
	<polygon
   points="39.23,80.82 37.58,79.43 41.05,74.56 41.05,78.41 "
   style="opacity:1;fill:#91a1b9;fill-rule:nonzero;stroke:none;stroke-width:1;stroke-linecap:butt;stroke-linejoin:miter;stroke-miterlimit:10;stroke-dasharray:none"
   transform="matrix(-1,0,0,1,90.000001,0)"
   id="polygon4" />
	<path
   d="m 13.831001,56.38 57.698,33.312 c 1.516,0.875 3.41,-0.219 3.41,-1.969 V 39.145 c 0,-1.408 -0.751,-2.709 -1.97,-3.413 l -58.172,-33.586 c -1.373,-0.792 -3.088,0.198 -3.088,1.783 v 48.774 c -0.001,1.517 0.809,2.919 2.122,3.677 z"
   style="opacity:1;fill:#d3dce8;fill-rule:nonzero;stroke:none;stroke-width:1;stroke-linecap:butt;stroke-linejoin:miter;stroke-miterlimit:10;stroke-dasharray:none"
   stroke-linecap="round"
   id="path5" />
	<polygon
   points="74.69,6.33 18.82,38.81 18.82,76.38 74.69,43.9 "
   style="opacity:1;fill:#9257fd;fill-opacity:1;fill-rule:nonzero;stroke:none;stroke-width:1;stroke-linecap:butt;stroke-linejoin:miter;stroke-miterlimit:10;stroke-dasharray:none"
   transform="matrix(-1,0,0,1,90.000001,0)"
   id="polygon5" />
	<polygon
   points="18.82,60.83 18.82,74.25 42.23,25.2 32.9,30.62 "
   style="opacity:1;fill:#ab7efd;fill-opacity:1;fill-rule:nonzero;stroke:none;stroke-width:1;stroke-linecap:butt;stroke-linejoin:miter;stroke-miterlimit:10;stroke-dasharray:none"
   transform="matrix(-1,0,0,1,90.000001,0)"
   id="polygon6" />
	<polygon
   points="66.69,10.98 53.62,18.58 29.58,70.12 41.87,62.97 "
   style="opacity:1;fill:#ab7efd;fill-opacity:1;fill-rule:nonzero;stroke:none;stroke-width:1;stroke-linecap:butt;stroke-linejoin:miter;stroke-miterlimit:10;stroke-dasharray:none"
   transform="matrix(-1,0,0,1,90.000001,0)"
   id="polygon7" />
	<ellipse
   cx="-39.717999"
   cy="65.5"
   rx="1.1720001"
   ry="2.1600001"
   style="opacity:1;fill:#91a1b9;fill-rule:nonzero;stroke:none;stroke-width:1;stroke-linecap:butt;stroke-linejoin:miter;stroke-miterlimit:10;stroke-dasharray:none"
   transform="scale(-1,1)"
   id="ellipse7" />
</g>
</svg>
