<?xml version="1.0" encoding="UTF-8" standalone="no"?>
<svg
   version="1.1"
   width="256"
   height="256"
   viewBox="0 0 256 256"
   xml:space="preserve"
   id="svg7"
   sodipodi:docname="computer-1918.svg"
   inkscape:version="1.3.2 (091e20ef0f, 2023-11-25, custom)"
   inkscape:export-filename="computer-1918.png"
   inkscape:export-xdpi="187.5"
   inkscape:export-ydpi="187.5"
   xmlns:inkscape="http://www.inkscape.org/namespaces/inkscape"
   xmlns:sodipodi="http://sodipodi.sourceforge.net/DTD/sodipodi-0.dtd"
   xmlns="http://www.w3.org/2000/svg"
   xmlns:svg="http://www.w3.org/2000/svg"><sodipodi:namedview
   id="namedview7"
   pagecolor="#ffffff"
   bordercolor="#000000"
   borderopacity="0.25"
   inkscape:showpageshadow="2"
   inkscape:pageopacity="0.0"
   inkscape:pagecheckerboard="0"
   inkscape:deskcolor="#d1d1d1"
   inkscape:zoom="0.921875"
   inkscape:cx="127.45763"
   inkscape:cy="127.45763"
   inkscape:window-width="1826"
   inkscape:window-height="885"
   inkscape:window-x="59"
   inkscape:window-y="121"
   inkscape:window-maximized="1"
   inkscape:current-layer="g7" />

<defs
   id="defs1">
</defs>
<g
   style="stroke: none; stroke-width: 0; stroke-dasharray: none; stroke-linecap: butt; stroke-linejoin: miter; stroke-miterlimit: 10; fill: none; fill-rule: nonzero; opacity: 1;"
   transform="translate(1.4065934065934016 1.4065934065934016) scale(2.81 2.81)"
   id="g7">
	<path
   d="M 77.333 2.19 l -3.338 -1.862 l -0.003 0.009 c -0.612 -0.395 -1.421 -0.478 -2.141 -0.062 L 13.679 33.861 c -1.219 0.704 -1.97 2.005 -1.97 3.413 v 48.578 c 0 0.856 0.456 1.55 1.096 1.938 l -0.004 0.005 l 0.04 0.022 c 0.004 0.002 0.007 0.004 0.011 0.006 l 3.448 1.92 l 1.254 -2.364 l -0.963 -0.409 l 56.225 -32.462 c 1.314 -0.758 2.123 -2.16 2.123 -3.677 V 3.775 l 0.725 0.224 L 77.333 2.19 z"
   style="stroke: none; stroke-width: 1; stroke-dasharray: none; stroke-linecap: butt; stroke-linejoin: miter; stroke-miterlimit: 10; fill: rgb(145,161,185); fill-rule: nonzero; opacity: 1;"
   transform=" matrix(1 0 0 1 0 0) "
   stroke-linecap="round"
   id="path1" />
	<path
   d="M 37.578 79.431 l -1.386 1.868 l 9.596 5.612 c 4.764 -3.677 10.41 -6.82 16.643 -9.609 l -10.583 -6.11 L 37.578 79.431 L 37.578 79.431"
   style="stroke: none; stroke-width: 1; stroke-dasharray: none; stroke-linecap: butt; stroke-linejoin: miter; stroke-miterlimit: 10; fill: rgb(145,161,185); fill-rule: nonzero; opacity: 1;"
   transform=" matrix(1 0 0 1 0 0) "
   stroke-linecap="round"
   id="path2" />
	<path
   d="M 45.789 86.911 v -2.74 c 4.499 -3.551 10.24 -6.69 16.643 -9.609 v 2.74 L 45.789 86.911 z"
   style="stroke: none; stroke-width: 1; stroke-dasharray: none; stroke-linecap: butt; stroke-linejoin: miter; stroke-miterlimit: 10; fill: rgb(184,195,211); fill-rule: nonzero; opacity: 1;"
   transform=" matrix(1 0 0 1 0 0) "
   stroke-linecap="round"
   id="path3" />
	<polygon
   points="54.22,69.82 37.58,79.43 45.79,84.17 62.43,74.56 "
   style="stroke: none; stroke-width: 1; stroke-dasharray: none; stroke-linecap: butt; stroke-linejoin: miter; stroke-miterlimit: 10; fill: rgb(211,220,232); fill-rule: nonzero; opacity: 1;"
   transform="  matrix(1 0 0 1 0 0) "
   id="polygon3" />
	<path
   d="M 41.055 76.653 l 16.643 -9.609 v 1.758 l -16.643 9.609 C 40.784 77.839 40.796 77.252 41.055 76.653 z"
   style="stroke: none; stroke-width: 1; stroke-dasharray: none; stroke-linecap: butt; stroke-linejoin: miter; stroke-miterlimit: 10; fill: rgb(184,195,211); fill-rule: nonzero; opacity: 1;"
   transform=" matrix(1 0 0 1 0 0) "
   stroke-linecap="round"
   id="path4" />
	<polygon
   points="41.05,78.41 39.23,80.82 37.58,79.43 41.05,74.56 "
   style="stroke: none; stroke-width: 1; stroke-dasharray: none; stroke-linecap: butt; stroke-linejoin: miter; stroke-miterlimit: 10; fill: rgb(145,161,185); fill-rule: nonzero; opacity: 1;"
   transform="  matrix(1 0 0 1 0 0) "
   id="polygon4" />
	<path
   d="M 76.169 56.38 L 18.471 89.692 c -1.516 0.875 -3.41 -0.219 -3.41 -1.969 V 39.145 c 0 -1.408 0.751 -2.709 1.97 -3.413 L 75.203 2.146 c 1.373 -0.792 3.088 0.198 3.088 1.783 v 48.774 C 78.292 54.22 77.482 55.622 76.169 56.38 z"
   style="stroke: none; stroke-width: 1; stroke-dasharray: none; stroke-linecap: butt; stroke-linejoin: miter; stroke-miterlimit: 10; fill: rgb(211,220,232); fill-rule: nonzero; opacity: 1;"
   transform=" matrix(1 0 0 1 0 0) "
   stroke-linecap="round"
   id="path5" />
	<polygon
   points="74.69,43.9 74.69,6.33 18.82,38.81 18.82,76.38 "
   style="stroke:none;stroke-width:1;stroke-dasharray:none;stroke-linecap:butt;stroke-linejoin:miter;stroke-miterlimit:10;fill:#9257fd;fill-rule:nonzero;opacity:1;fill-opacity:1"
   transform="  matrix(1 0 0 1 0 0) "
   id="polygon5" />
	<polygon
   points="32.9,30.62 18.82,60.83 18.82,74.25 42.23,25.2 "
   style="stroke:none;stroke-width:1;stroke-dasharray:none;stroke-linecap:butt;stroke-linejoin:miter;stroke-miterlimit:10;fill:#ab7efd;fill-rule:nonzero;opacity:1;fill-opacity:1"
   transform="  matrix(1 0 0 1 0 0) "
   id="polygon6" />
	<polygon
   points="41.87,62.97 66.69,10.98 53.62,18.58 29.58,70.12 "
   style="stroke:none;stroke-width:1;stroke-dasharray:none;stroke-linecap:butt;stroke-linejoin:miter;stroke-miterlimit:10;fill:#ab7efd;fill-rule:nonzero;opacity:1;fill-opacity:1"
   transform="  matrix(1 0 0 1 0 0) "
   id="polygon7" />
	<ellipse
   cx="50.282"
   cy="65.5"
   rx="1.172"
   ry="2.16"
   style="stroke: none; stroke-width: 1; stroke-dasharray: none; stroke-linecap: butt; stroke-linejoin: miter; stroke-miterlimit: 10; fill: rgb(145,161,185); fill-rule: nonzero; opacity: 1;"
   transform=" matrix(1 0 0 1 0 0) "
   id="ellipse7" />
</g>
</svg>
