<?xml version="1.0" encoding="UTF-8" standalone="no"?>
<svg
   viewBox="0 0 1000000 1000000"
   version="1.1"
   id="svg4"
   xml:space="preserve"
   width="1000000"
   height="1000000"
   xmlns="http://www.w3.org/2000/svg"
   xmlns:svg="http://www.w3.org/2000/svg"><defs
     id="defs3"><linearGradient
       id="b"
       gradientTransform="scale(0.98942002,1.0106931)"
       x1="61.108063"
       y1="129.54874"
       x2="860.21423"
       y2="129.54874"
       gradientUnits="userSpaceOnUse"><stop
         offset="0%"
         stop-color="#e3d4ff"
         id="stop1" /><stop
         offset="50%"
         stop-color="#ad81fe"
         id="stop2" /><stop
         offset="100%"
         stop-color="#9155fd"
         id="stop3" /></linearGradient><clipPath
       id="a"><path
         fill="currentColor"
         d="M 828,606.5 Q 793,713 722,839.5 651,966 511,931 371,896 299.5,797 228,698 129,599 30,500 74,361 118,222 245,164.5 372,107 486.5,148 601,189 714,225.5 827,262 845,381 863,500 828,606.5 Z"
         id="path3" /></clipPath></defs><g
     clip-path="url(#a)"
     id="g4"
     transform="matrix(1.1929258,0,0,1.1929258,-57.628645,-134.12492)"><path
       fill="url(#b)"
       d="M 828,606.5 Q 793,713 722,839.5 651,966 511,931 371,896 299.5,797 228,698 129,599 30,500 74,361 118,222 245,164.5 372,107 486.5,148 601,189 714,225.5 827,262 845,381 863,500 828,606.5 Z"
       id="path4"
       style="fill:url(#b)" /></g><g
     id="g5"
     transform="matrix(30.969379,0,0,30.969379,63.981923,-54.239773)"><path
       fill="#2a292e"
       d="m 17.996,16.25 10.024,5.788 c 0.42,0.243 0.426,0.847 0.011,1.098 L 17.07,29.768 v 0.002 c -0.5,0.302 -1.126,0.308 -1.631,0.015 L 5,23.759 4.59,23.516 C 4.232,23.222 3.99,22.733 4,22.325 v -0.784 l 0.823,-0.784"
       id="path1" /><g
       fill="#2a292e"
       id="g3"><path
         d="M 4.518,8.972 15.855,2.732 A 0.772,0.772 0 0 1 17,3.41 v 10.77 a 1,1 0 0 1 -0.5,0.866 L 4,22.257 V 9.848 A 1,1 0 0 1 4.518,8.972 Z"
         id="path2" /><path
         fill-rule="evenodd"
         d="m 16.493,2.682 1.07,0.531 -0.772,0.405 z"
         id="path3-3" /></g><path
       fill="#eef2fa"
       d="M 5.518,9.472 16.855,3.232 A 0.772,0.772 0 0 1 18,3.91 v 10.77 a 1,1 0 0 1 -0.5,0.866 L 5,22.757 V 10.348 A 1,1 0 0 1 5.518,9.472 Z"
       id="path4-6" /><path
       fill="#6fb7e6"
       d="M 6,10.498 17.007,4.484 V 14.845 L 6,21.143 Z"
       id="path5"
       style="fill:#9257fd;fill-opacity:1" /><path
       fill="#2a292e"
       fill-rule="evenodd"
       d="m 28.336,22.496 -0.858,-0.725 0.86,-0.135 z"
       id="path6" /><path
       fill="#3c3b41"
       d="M 17.07,28.767 28.031,22.135 A 0.638,0.638 0 0 0 28.02,21.037 l -9.617,-5.553 a 0.813,0.813 0 0 0 -0.814,0 L 5,22.757 15.439,28.784 a 1.603,1.603 0 0 0 1.631,-0.016 z"
       id="path7" /><path
       fill="#2a292e"
       d="M 12.656,25.586 22.876,19.6 a 0.234,0.234 0 0 0 0.003,-0.403 L 18.353,16.453 A 0.44,0.44 0 0 0 17.905,16.45 L 7.378,22.53 a 0.26,0.26 0 0 0 0.003,0.451 l 4.645,2.611 a 0.633,0.633 0 0 0 0.63,-0.003 z m 5.63,1.108 3.637,-2.095 a 0.183,0.183 0 0 0 0,-0.317 L 19.97,23.167 a 0.458,0.458 0 0 0 -0.455,0 l -3.65,2.099 a 0.195,0.195 0 0 0 -10e-4,0.337 l 1.877,1.09 a 0.544,0.544 0 0 0 0.545,0 z"
       id="path8" /></g></svg>
